<?xml version="1.0" encoding="UTF-8"?>
<!DOCTYPE svg PUBLIC "-//W3C//DTD SVG 1.1//EN" "http://www.w3.org/Graphics/SVG/1.1/DTD/svg11.dtd">
<!-- Creator: CorelDRAW 2018 (64-Bit) -->
<svg xmlns="http://www.w3.org/2000/svg" xml:space="preserve" width="90mm" height="50mm" version="1.1" style="shape-rendering:geometricPrecision; text-rendering:geometricPrecision; image-rendering:optimizeQuality; fill-rule:evenodd; clip-rule:evenodd"
viewBox="0 0 9000 5000"
 xmlns:xlink="http://www.w3.org/1999/xlink">
 <defs>
  <style type="text/css">
   <![CDATA[
    .str0 {stroke:#2B2A29;stroke-width:7.62;stroke-miterlimit:22.9256}
    .str5 {stroke:#009846;stroke-width:17.4;stroke-miterlimit:22.9256}
    .str3 {stroke:#009846;stroke-width:17.4;stroke-miterlimit:22.9256}
    .str4 {stroke:#009846;stroke-width:17.4;stroke-miterlimit:22.9256}
    .str2 {stroke:#009846;stroke-width:17.4;stroke-miterlimit:22.9256}
    .str1 {stroke:#009846;stroke-width:17.4;stroke-miterlimit:22.9256}
    .str6 {stroke:#009846;stroke-width:17.4;stroke-linecap:round;stroke-linejoin:round;stroke-miterlimit:22.9256}
    .fil0 {fill:none}
    .fil4 {fill:#FEFEFE}
    .fil3 {fill:#E8BE46}
    .fil1 {fill:#009846}
    .fil2 {fill:#006332}
   ]]>
  </style>
    <clipPath id="id0">
     <path d="M1511.35 3272.87c-122.37,70.86 -8.39,156.88 -15.83,150.47 -175.47,-78.99 -78.03,-166.53 14.37,-223.78l1.46 73.31z"/>
    </clipPath>
    <clipPath id="id1">
     <path d="M1620.44 2521c-26.54,8.24 -52.81,17.38 -79.23,26.02 -34.57,11.34 -70.43,22.89 -101.42,37.04 -38.56,17.6 -129.87,61.69 -98.68,114.09 11.01,18.48 62.81,56.38 107.89,87.13 41.64,28.39 83.98,53.81 124.32,82.76 43.77,31.39 87.45,68.23 119.65,111.78 22.04,29.84 36.97,61.74 39.26,94.16 5.84,82.54 -93.53,147.83 -153.03,179.31l-37.28 17.02 18.77 -96.46c31.64,-18.77 51.41,-43.72 65.59,-78.88 6.03,-42.41 -3.04,-54.53 -29.04,-84.95 -22.03,-19.43 -48.1,-39.25 -73.85,-57.53 -46.58,-33.05 -96.2,-61.12 -142.79,-93.91 -41.73,-29.35 -91.93,-70.69 -119.69,-115.15 -46.29,-74.15 -16.9,-150.85 46.58,-203.84 67.24,-56.17 171.71,-83.23 290.19,-122.01l22.76 103.42z"/>
    </clipPath>
    <clipPath id="id2">
     <path d="M1580.18 1928c-145.26,33.77 -429.02,108.02 -498.62,259.29 -29.43,63.96 -6.77,148.48 43.32,194.87 27.88,25.84 63.59,47.8 98.57,65.59 65.17,33.14 134.63,51.77 203.86,73.25 26.55,8.24 52.81,17.38 79.23,26.02 34.57,11.34 70.43,22.89 101.42,37.04 38.56,17.6 129.87,61.69 98.68,114.09 -20.27,34.02 -68.59,65.5 -69.04,65.54l-26.08 131.62c0.87,-0.11 122.17,-66.76 175.32,-151.88 46.29,-74.15 16.9,-150.85 -46.58,-203.84 -91.56,-76.48 -252.16,-98.97 -423.13,-170.64 -49.38,-24.79 -169.34,-86.38 -113.45,-146.89 83.17,-90.06 262,-133.4 376.22,-168.02l0.28 -126.04z"/>
    </clipPath>
    <clipPath id="id3">
     <path d="M1546.22 1370.78c93.19,-17.49 184.63,-33.56 272.79,-53.41 47.52,-10.7 95.52,-21.76 142.63,-34.14 72.85,-19.16 129.86,-43.86 171.98,-79.56 54.35,-46.01 55.11,-109.55 -15.21,-159.29 -81.15,38.11 -81.82,40.71 -163.33,3.96l-104.05 0c-35.78,-6.08 -37.88,-30.56 -23.04,-49.12 14.42,-18.07 40.27,-22.83 61.31,-29.73 47.45,-15.56 94.32,-29.31 141.87,-53.57 125.24,-43.36 265.82,42.18 309.11,162.66 12.11,33.76 16.14,70.88 13.98,106.57 -6.01,98.74 -67.02,193.39 -247.61,253.9 -140.05,43.02 -383.47,80.59 -616.84,125.43l56.41 -193.7z"/>
    </clipPath>
    <clipPath id="id4">
     <path d="M1097.01 1678.75c-63.84,77.77 29.47,159.31 183.69,205.86 70.48,21.26 144.36,31.48 215.73,49.98 152.63,39.58 412.67,124.29 471.75,252.7 29.43,63.96 6.77,148.48 -43.32,194.87 -83.52,77.39 -232.95,119.22 -228.08,119.77l24.7 -121.21c36.43,-23.32 189.29,-88.59 124.58,-158.66 -59.94,-64.91 -251.53,-130.96 -376.22,-168.02 -80.07,-23.79 -155.59,-33.8 -236.91,-50.24 -166.97,-33.75 -332.26,-103.03 -325.97,-285.58 3.81,-109.89 91.75,-199.64 224.14,-245.32 124.33,-42.89 249.53,-70.04 372,-93.93l-29.19 188.58c-100.54,19.5 -198.76,40.43 -285.47,63.78 -38.23,10.27 -65.26,15.5 -91.43,47.42z"/>
    </clipPath>
    <clipPath id="id5">
     <path d="M1948.2 1678.75c73.17,89.14 -53.37,184.56 -248.18,225.25l-30.91 81.42 73 30.75c187.19,-28.85 403.31,-89.7 396.13,-297.95 -3.8,-109.89 -91.74,-199.64 -224.14,-245.32 -234.04,-80.76 -470.89,-106.64 -687.9,-155.53 -47.53,-10.7 -95.52,-21.76 -142.64,-34.14 -72.85,-19.16 -129.86,-43.86 -171.97,-79.56 -54.36,-46.01 -55.12,-109.55 15.21,-159.29 81.14,38.11 81.81,40.71 163.32,3.96l104.06 0c35.77,-6.08 37.87,-30.56 23.03,-49.12 -14.42,-18.07 -40.26,-22.83 -61.31,-29.73 -47.44,-15.56 -94.31,-29.31 -141.86,-53.57 -125.25,-43.36 -265.83,42.18 -309.12,162.66 -12.1,33.76 -16.13,70.88 -13.97,106.57 6,98.74 67.02,193.39 247.6,253.9 203.72,62.59 626.11,113.62 918.22,192.28 38.23,10.27 65.25,15.5 91.43,47.42z"/>
    </clipPath>
    <clipPath id="id6">
     <path d="M1438.28 2897.47c-30.04,24.42 -58.34,51.73 -80.98,82.35 -22.05,29.84 -36.98,61.74 -39.27,94.16 -4.01,56.82 44.51,103.04 95.02,136.2 36.23,23.78 71.96,34.27 110.34,52.37 118.9,56.09 70.47,125.66 46.08,151.16l-10.45 9.63c4.69,-2.11 9.19,-4.24 13.5,-6.37 164.69,-81.2 51.85,-170.24 -41.43,-225.63 -28.38,-16.83 -53.71,-29.63 -77.04,-53.66 -13.18,-13.56 -24.25,-28.28 -30.07,-42.71 -6.02,-42.41 3.04,-54.53 29.04,-84.95l71.16 -56.89c-28.28,-19.81 -56.14,-38.18 -85.9,-55.66z"/>
    </clipPath>
 </defs>
 <g id="Layer_x0020_1">
  <metadata id="CorelCorpID_0Corel-Layer"/>
  <rect class="fil0 str0" width="9000" height="5000"/>
  <g id="_2438504196512">
   <g>
    <path class="fil0 str1" d="M1511.35 3272.87c-122.37,70.86 -8.39,156.88 -15.83,150.47 -175.47,-78.99 -78.03,-166.53 14.37,-223.78l1.46 73.31z"/>
   </g>
   <path id="1" class="fil1" d="M1511.35 3272.87c-122.37,70.86 -8.39,156.88 -15.83,150.47 -175.47,-78.99 -78.03,-166.53 14.37,-223.78l1.46 73.31z"/>
   <g style="clip-path:url(#id0)">
    <g id="_2438504170048">
     <path id="2" class="fil2" d="M1511.35 3273.04c-11.47,6.64 -20.86,13.42 -28.47,20.24 -27.43,-66.06 -147.96,38.72 12.64,130.22 -175.47,-78.98 -78.03,-166.52 14.37,-223.77l1.46 73.31z"/>
    </g>
   </g>
   <polygon class="fil3" points="1677.61,2557.15 1475.78,3557.28 1541.35,2496.39 "/>
   <g>
    <path class="fil0 str2" d="M1620.44 2521c-26.54,8.24 -52.81,17.38 -79.23,26.02 -34.57,11.34 -70.43,22.89 -101.42,37.04 -38.56,17.6 -129.87,61.69 -98.68,114.09 11.01,18.48 62.81,56.38 107.89,87.13 41.64,28.39 83.98,53.81 124.32,82.76 43.77,31.39 87.45,68.23 119.65,111.78 22.04,29.84 36.97,61.74 39.26,94.16 5.84,82.54 -93.53,147.83 -153.03,179.31l-37.28 17.02 18.77 -96.46c31.64,-18.77 51.41,-43.72 65.59,-78.88 6.03,-42.41 -3.04,-54.53 -29.04,-84.95 -22.03,-19.43 -48.1,-39.25 -73.85,-57.53 -46.58,-33.05 -96.2,-61.12 -142.79,-93.91 -41.73,-29.35 -91.93,-70.69 -119.69,-115.15 -46.29,-74.15 -16.9,-150.85 46.58,-203.84 67.24,-56.17 171.71,-83.23 290.19,-122.01l22.76 103.42z"/>
   </g>
   <path id="1" class="fil1" d="M1620.44 2521c-26.54,8.24 -52.81,17.38 -79.23,26.02 -34.57,11.34 -70.43,22.89 -101.42,37.04 -38.56,17.6 -129.87,61.69 -98.68,114.09 11.01,18.48 62.81,56.38 107.89,87.13 41.64,28.39 83.98,53.81 124.32,82.76 43.77,31.39 87.45,68.23 119.65,111.78 22.04,29.84 36.97,61.74 39.26,94.16 5.84,82.54 -93.53,147.83 -153.03,179.31l-37.28 17.02 18.77 -96.46c31.64,-18.77 51.41,-43.72 65.59,-78.88 6.03,-42.41 -3.04,-54.53 -29.04,-84.95 -22.03,-19.43 -48.1,-39.25 -73.85,-57.53 -46.58,-33.05 -96.2,-61.12 -142.79,-93.91 -41.73,-29.35 -91.93,-70.69 -119.69,-115.15 -46.29,-74.15 -16.9,-150.85 46.58,-203.84 67.24,-56.17 171.71,-83.23 290.19,-122.01l22.76 103.42z"/>
   <g style="clip-path:url(#id1)">
    <g>
     <path id="2" class="fil2" d="M1620.44 2521c-26.54,8.24 -52.81,17.38 -79.23,26.02 -34.57,11.34 -53.44,13.44 -84.43,27.58 -48.14,-101.8 -132.04,-27.64 -176.92,30.84 -39.44,51.39 -18.07,116.63 26.37,162.36 53.2,54.78 155.65,114.71 228.26,169.5 43.77,31.39 59.94,43.8 96.06,84.39 56.08,75.92 -26.03,159.67 -83.19,181.19l5.88 -29.35c-0.09,0 51.56,-25.33 73.04,-78.56 6.03,-42.41 -3.04,-54.53 -29.04,-84.95 -22.03,-19.43 -48.1,-39.25 -73.85,-57.53 -46.58,-33.05 -96.2,-61.12 -142.79,-93.91 -41.73,-29.35 -91.93,-70.69 -119.69,-115.15 -46.29,-74.15 -16.9,-150.85 46.58,-203.84 67.24,-56.17 171.71,-83.23 290.19,-122.01l22.76 103.42z"/>
    </g>
   </g>
   <path class="fil3" d="M1665.71 1974.94l-99.4 267.22 203.69 -142.85 -89.8 445.01 -138.85 -47.93 6.85 -109.11 -93.5 30.22c-31.77,-9.41 -62.27,-19.69 -91.29,-30.91l151.52 -405.28 150.78 -6.37z"/>
   <g>
    <path class="fil0 str3" d="M1580.18 1928c-145.26,33.77 -429.02,108.02 -498.62,259.29 -29.43,63.96 -6.77,148.48 43.32,194.87 27.88,25.84 63.59,47.8 98.57,65.59 65.17,33.14 134.63,51.77 203.86,73.25 26.55,8.24 52.81,17.38 79.23,26.02 34.57,11.34 70.43,22.89 101.42,37.04 38.56,17.6 129.87,61.69 98.68,114.09 -20.27,34.02 -68.59,65.5 -69.04,65.54l-26.08 131.62c0.87,-0.11 122.17,-66.76 175.32,-151.88 46.29,-74.15 16.9,-150.85 -46.58,-203.84 -91.56,-76.48 -252.16,-98.97 -423.13,-170.64 -49.38,-24.79 -169.34,-86.38 -113.45,-146.89 83.17,-90.06 262,-133.4 376.22,-168.02l0.28 -126.04z"/>
   </g>
   <path id="1" class="fil1" d="M1580.18 1928c-145.26,33.77 -429.02,108.02 -498.62,259.29 -29.43,63.96 -6.77,148.48 43.32,194.87 27.88,25.84 63.59,47.8 98.57,65.59 65.17,33.14 134.63,51.77 203.86,73.25 26.55,8.24 52.81,17.38 79.23,26.02 34.57,11.34 70.43,22.89 101.42,37.04 38.56,17.6 129.87,61.69 98.68,114.09 -20.27,34.02 -68.59,65.5 -69.04,65.54l-26.08 131.62c0.87,-0.11 122.17,-66.76 175.32,-151.88 46.29,-74.15 16.9,-150.85 -46.58,-203.84 -91.56,-76.48 -252.16,-98.97 -423.13,-170.64 -49.38,-24.79 -169.34,-86.38 -113.45,-146.89 83.17,-90.06 262,-133.4 376.22,-168.02l0.28 -126.04z"/>
   <g style="clip-path:url(#id2)">
    <g>
     <path id="2" class="fil2" d="M1580.18 1928c-145.26,33.77 -429.02,108.02 -498.62,259.29 -29.43,63.96 -6.77,148.48 43.32,194.87 27.88,25.84 63.59,47.8 98.57,65.59 65.17,33.14 134.63,51.77 203.86,73.25 26.55,8.24 52.81,17.38 79.23,26.02 34.57,11.34 70.43,22.89 101.42,37.04 38.56,17.6 129.87,61.69 98.68,114.09 -20.27,34.02 -68.59,65.5 -69.04,65.54l-6.01 31.05c89.12,-48.73 141.3,-119.59 64.24,-183.92 -91.56,-76.48 -272.56,-103.16 -443.53,-174.83 -108.99,-54.74 -175.71,-107.05 -157.98,-212.93 21.97,-131.13 315.19,-252.25 325.13,-119.97 56.98,-19.49 114.06,-35 160.45,-49.05l0.28 -126.04z"/>
    </g>
   </g>
   <g>
    <path class="fil0 str4" d="M1546.22 1370.78c93.19,-17.49 184.63,-33.56 272.79,-53.41 47.52,-10.7 95.52,-21.76 142.63,-34.14 72.85,-19.16 129.86,-43.86 171.98,-79.56 54.35,-46.01 55.11,-109.55 -15.21,-159.29 -81.15,38.11 -81.82,40.71 -163.33,3.96l-104.05 0c-35.78,-6.08 -37.88,-30.56 -23.04,-49.12 14.42,-18.07 40.27,-22.83 61.31,-29.73 47.45,-15.56 94.32,-29.31 141.87,-53.57 125.24,-43.36 265.82,42.18 309.11,162.66 12.11,33.76 16.14,70.88 13.98,106.57 -6.01,98.74 -67.02,193.39 -247.61,253.9 -140.05,43.02 -383.47,80.59 -616.84,125.43l56.41 -193.7z"/>
   </g>
   <path id="1" class="fil1" d="M1546.22 1370.78c93.19,-17.49 184.63,-33.56 272.79,-53.41 47.52,-10.7 95.52,-21.76 142.63,-34.14 72.85,-19.16 129.86,-43.86 171.98,-79.56 54.35,-46.01 55.11,-109.55 -15.21,-159.29 -81.15,38.11 -81.82,40.71 -163.33,3.96l-104.05 0c-35.78,-6.08 -37.88,-30.56 -23.04,-49.12 14.42,-18.07 40.27,-22.83 61.31,-29.73 47.45,-15.56 94.32,-29.31 141.87,-53.57 125.24,-43.36 265.82,42.18 309.11,162.66 12.11,33.76 16.14,70.88 13.98,106.57 -6.01,98.74 -67.02,193.39 -247.61,253.9 -140.05,43.02 -383.47,80.59 -616.84,125.43l56.41 -193.7z"/>
   <g style="clip-path:url(#id3)">
    <g>
     <path id="2" class="fil2" d="M1760.51 1451.37c30.31,-5.05 57.4,-10.01 80.05,-15.11 259.57,-58.45 563.88,-92.76 432.43,-457.52 29.08,27.95 52.12,62.19 65.65,99.84 12.1,33.76 16.13,70.88 13.97,106.57 -6,98.74 -67.02,193.39 -247.61,253.9l-303.02 67.6 -41.47 -55.28z"/>
     <path class="fil2" d="M2115.36 1045.2c-86.23,49.3 -118.47,23.67 -160.28,3.14l-41.66 0c30.53,-14.45 52.76,-16.79 77.79,-9.31 35.93,10.72 43.05,20.83 82.54,6.87 40.23,-14.22 81.45,-45.73 79.8,-100.58 17.09,37.95 -3.31,79.96 -38.19,99.88z"/>
    </g>
   </g>
   <g>
    <path class="fil0 str4" d="M1097.01 1678.75c-63.84,77.77 29.47,159.31 183.69,205.86 70.48,21.26 144.36,31.48 215.73,49.98 152.63,39.58 412.67,124.29 471.75,252.7 29.43,63.96 6.77,148.48 -43.32,194.87 -83.52,77.39 -232.95,119.22 -228.08,119.77l24.7 -121.21c36.43,-23.32 189.29,-88.59 124.58,-158.66 -59.94,-64.91 -251.53,-130.96 -376.22,-168.02 -80.07,-23.79 -155.59,-33.8 -236.91,-50.24 -166.97,-33.75 -332.26,-103.03 -325.97,-285.58 3.81,-109.89 91.75,-199.64 224.14,-245.32 124.33,-42.89 249.53,-70.04 372,-93.93l-29.19 188.58c-100.54,19.5 -198.76,40.43 -285.47,63.78 -38.23,10.27 -65.26,15.5 -91.43,47.42z"/>
   </g>
   <path id="1" class="fil1" d="M1097.01 1678.75c-63.84,77.77 29.47,159.31 183.69,205.86 70.48,21.26 144.36,31.48 215.73,49.98 152.63,39.58 412.67,124.29 471.75,252.7 29.43,63.96 6.77,148.48 -43.32,194.87 -83.52,77.39 -232.95,119.22 -228.08,119.77l24.7 -121.21c36.43,-23.32 189.29,-88.59 124.58,-158.66 -59.94,-64.91 -251.53,-130.96 -376.22,-168.02 -80.07,-23.79 -155.59,-33.8 -236.91,-50.24 -166.97,-33.75 -332.26,-103.03 -325.97,-285.58 3.81,-109.89 91.75,-199.64 224.14,-245.32 124.33,-42.89 249.53,-70.04 372,-93.93l-29.19 188.58c-100.54,19.5 -198.76,40.43 -285.47,63.78 -38.23,10.27 -65.26,15.5 -91.43,47.42z"/>
   <g style="clip-path:url(#id4)">
    <g>
     <path id="2" class="fil2" d="M1237 1979.48c168.1,29.69 378.96,80.77 562.19,182.45 25.35,15.51 49.41,30.74 66.23,55.93 52.33,78.34 -42.57,146.15 -156.78,192.76l4.5 -30.31c-12.11,-1.58 204.46,-80.79 132.92,-158.25 -59.94,-64.91 -251.53,-130.96 -376.22,-168.02 -80.07,-23.79 -155.59,-33.8 -236.91,-50.24 -166.97,-33.75 -332.26,-103.03 -325.97,-285.58 3.81,-109.89 91.75,-199.64 224.14,-245.32 124.33,-42.89 249.53,-70.04 372,-93.93l-29.19 188.58c-56.55,10.97 -112.39,22.4 -165.82,34.43 -41.57,9.36 31.2,-72.09 -185.21,-87.43 -241.67,102.79 -287.24,379.61 114.12,464.93z"/>
    </g>
   </g>
   <path class="fil3" d="M1558.39 1517.26l-69.03 171.64 348.54 -176.86 -172.27 464.8c-47.71,-16.42 -92.05,-29.88 -133.59,-40.06l52.37 -141.31 -225.1 100.27c-34,-6.42 -65.93,-14.95 -96.01,-25.29l118.83 -348.1 176.26 -5.09z"/>
   <polygon class="fil3" points="1511.99,1063.08 1799.42,917.97 1583.28,1455.38 1400.58,1468.67 1466.72,1276.23 1136.29,1437.22 1704.37,527.97 "/>
   <g>
    <path class="fil0 str5" d="M1948.2 1678.75c73.17,89.14 -53.37,184.56 -248.18,225.25l-30.91 81.42 73 30.75c187.19,-28.85 403.31,-89.7 396.13,-297.95 -3.8,-109.89 -91.74,-199.64 -224.14,-245.32 -234.04,-80.76 -470.89,-106.64 -687.9,-155.53 -47.53,-10.7 -95.52,-21.76 -142.64,-34.14 -72.85,-19.16 -129.86,-43.86 -171.97,-79.56 -54.36,-46.01 -55.12,-109.55 15.21,-159.29 81.14,38.11 81.81,40.71 163.32,3.96l104.06 0c35.77,-6.08 37.87,-30.56 23.03,-49.12 -14.42,-18.07 -40.26,-22.83 -61.31,-29.73 -47.44,-15.56 -94.31,-29.31 -141.86,-53.57 -125.25,-43.36 -265.83,42.18 -309.12,162.66 -12.1,33.76 -16.13,70.88 -13.97,106.57 6,98.74 67.02,193.39 247.6,253.9 203.72,62.59 626.11,113.62 918.22,192.28 38.23,10.27 65.25,15.5 91.43,47.42z"/>
   </g>
   <path id="1" class="fil1" d="M1948.2 1678.75c73.17,89.14 -53.37,184.56 -248.18,225.25l-30.91 81.42 73 30.75c187.19,-28.85 403.31,-89.7 396.13,-297.95 -3.8,-109.89 -91.74,-199.64 -224.14,-245.32 -234.04,-80.76 -470.89,-106.64 -687.9,-155.53 -47.53,-10.7 -95.52,-21.76 -142.64,-34.14 -72.85,-19.16 -129.86,-43.86 -171.97,-79.56 -54.36,-46.01 -55.12,-109.55 15.21,-159.29 81.14,38.11 81.81,40.71 163.32,3.96l104.06 0c35.77,-6.08 37.87,-30.56 23.03,-49.12 -14.42,-18.07 -40.26,-22.83 -61.31,-29.73 -47.44,-15.56 -94.31,-29.31 -141.86,-53.57 -125.25,-43.36 -265.83,42.18 -309.12,162.66 -12.1,33.76 -16.13,70.88 -13.97,106.57 6,98.74 67.02,193.39 247.6,253.9 203.72,62.59 626.11,113.62 918.22,192.28 38.23,10.27 65.25,15.5 91.43,47.42z"/>
   <g style="clip-path:url(#id5)">
    <g>
     <path id="2" class="fil2" d="M1948.2 1678.75c73.17,89.14 -60.1,183.21 -254.91,223.9l-32.08 80.17 88.22 36.48c-183.16,-152.09 271.18,-80.2 264.12,-298.18 -20.84,-202.98 -602.66,-238.03 -810.55,-284.86 -259.57,-58.45 -563.89,-92.76 -432.43,-457.52 -29.09,27.95 -52.13,62.19 -65.65,99.84 -12.1,33.76 -16.13,70.88 -13.97,106.57 6,98.74 67.02,193.39 247.6,253.9 203.72,62.59 626.11,113.62 918.22,192.28 38.23,10.27 65.25,15.5 91.43,47.42z"/>
     <path class="fil2" d="M927.86 1045.2c86.24,49.3 118.47,23.67 160.28,3.14l41.66 0c-30.52,-14.45 -52.76,-16.79 -77.79,-9.31 -35.93,10.72 -43.04,20.83 -82.54,6.87 -40.23,-14.22 -81.45,-45.73 -79.8,-100.58 -17.09,37.95 3.31,79.96 38.19,99.88z"/>
    </g>
   </g>
   <g>
    <path class="fil0 str6" d="M1438.28 2897.47c-30.04,24.42 -58.34,51.73 -80.98,82.35 -22.05,29.84 -36.98,61.74 -39.27,94.16 -4.01,56.82 44.51,103.04 95.02,136.2 36.23,23.78 71.96,34.27 110.34,52.37 118.9,56.09 70.47,125.66 46.08,151.16l-10.45 9.63c4.69,-2.11 9.19,-4.24 13.5,-6.37 164.69,-81.2 51.85,-170.24 -41.43,-225.63 -28.38,-16.83 -53.71,-29.63 -77.04,-53.66 -13.18,-13.56 -24.25,-28.28 -30.07,-42.71 -6.02,-42.41 3.04,-54.53 29.04,-84.95l71.16 -56.89c-28.28,-19.81 -56.14,-38.18 -85.9,-55.66z"/>
   </g>
   <path id="1" class="fil1" d="M1438.28 2897.47c-30.04,24.42 -58.34,51.73 -80.98,82.35 -22.05,29.84 -36.98,61.74 -39.27,94.16 -4.01,56.82 44.51,103.04 95.02,136.2 36.23,23.78 71.96,34.27 110.34,52.37 118.9,56.09 70.47,125.66 46.08,151.16l-10.45 9.63c4.69,-2.11 9.19,-4.24 13.5,-6.37 164.69,-81.2 51.85,-170.24 -41.43,-225.63 -28.38,-16.83 -53.71,-29.63 -77.04,-53.66 -13.18,-13.56 -24.25,-28.28 -30.07,-42.71 -6.02,-42.41 3.04,-54.53 29.04,-84.95l71.16 -56.89c-28.28,-19.81 -56.14,-38.18 -85.9,-55.66z"/>
   <g style="clip-path:url(#id6)">
    <g>
     <path id="2" class="fil2" d="M1438.28 2897.47c-30.04,24.42 -58.34,51.73 -80.98,82.35 -22.05,29.84 -36.98,61.74 -39.27,94.16 -4.01,56.82 44.51,103.04 95.02,136.2 36.23,23.78 71.96,34.27 110.34,52.37 153.69,72.5 27.82,167.52 35.63,160.79 130.98,-108.21 14.41,-160.28 -81.68,-207.31 -91.05,-44.6 -169.99,-90.55 -108.42,-206.96 30.99,-58.59 85.29,-102.73 107.4,-17.69l47.86 -38.25c-28.28,-19.81 -56.14,-38.18 -85.9,-55.66z"/>
    </g>
   </g>
   <path class="fil4" d="M1986.91 962.05c15.72,-7.91 38.95,-15.7 57.49,-19.42 -4.73,20.72 -25.78,23.34 -57.49,19.42z"/>
   <path class="fil4" d="M1042.31 962.05c-15.73,-7.91 -38.96,-15.7 -57.5,-19.42 4.74,20.72 25.78,23.34 57.5,19.42z"/>
  </g>
 </g>
</svg>
